<svg id="Layer_1" data-name="Layer 1" xmlns="http://www.w3.org/2000/svg" xmlns:xlink="http://www.w3.org/1999/xlink" viewBox="0 0 512 512"><defs><style>.cls-1{fill:none;stroke-miterlimit:10;stroke-width:8px;stroke:url(#linear-gradient);}</style><linearGradient id="linear-gradient" x1="86.19" y1="323.5" x2="424.16" y2="-14.46" gradientUnits="userSpaceOnUse"><stop offset="0" stop-color="#0071bc"/><stop offset="0.36" stop-color="#844bd5"/><stop offset="0.7" stop-color="#c1272d"/><stop offset="1" stop-color="#fbae17"/></linearGradient></defs><path class="cls-1" d="M23.75,56H132.09a1.25,1.25,0,0,1,1,.65L259.61,317.91a1.11,1.11,0,0,0,1,.62h0a1.1,1.1,0,0,0,1-.65L379,56.68A1.27,1.27,0,0,1,380,56h108.3a1.07,1.07,0,0,1,1,1.69L284.82,455.37a1.27,1.27,0,0,1-1,.63h-59a1.29,1.29,0,0,1-1-.64L22.72,57.68A1.07,1.07,0,0,1,23.75,56Z"/></svg>